<svg version="1.1" viewBox="0.0 0.0 600.0 371.0" fill="none" stroke="none" stroke-linecap="square" stroke-miterlimit="10" width="600" height="371" xmlns:xlink="http://www.w3.org/1999/xlink" xmlns="http://www.w3.org/2000/svg"><path fill="#ffffff" d="M0 0L600.0 0L600.0 371.0L0 371.0L0 0Z" fill-rule="nonzero"/><path fill="#4285f4" d="M300.0 54.916668C312.56345 54.916668 325.0763 56.50813 337.23978 59.653053L300.0 203.68333Z" fill-rule="nonzero"/><path fill="#db4437" d="M337.23978 59.653053C409.18176 78.25403 456.3653 147.08768 447.7675 220.8964C439.1697 294.7051 377.4277 350.8503 303.13644 352.41693L300.0 203.68333Z" fill-rule="nonzero"/><path fill="#46bdc6" d="M233.44136 70.63647C254.10574 60.298805 276.89407 54.916668 300.0 54.916668L300.0 203.68333Z" fill-rule="nonzero"/><path fill="#ff6d00" d="M207.07043 87.512695C215.24268 80.97539 224.08192 75.318665 233.44136 70.63647L300.0 203.68333Z" fill-rule="nonzero"/><path fill="#0f9d58" d="M151.30772 208.38756C149.82634 161.56343 170.48756 116.7768 207.07043 87.512695L300.0 203.68333Z" fill-rule="nonzero"/><path fill="#f4b400" d="M303.13644 352.41693C221.60481 354.13623 153.88646 289.89655 151.30772 208.38756L300.0 203.68333Z" fill-rule="nonzero"/><path fill="#757575" d="M22.05 63.11979Q20.6125 62.697914 19.940624 62.08854Q19.284374 61.479164 19.284374 60.58854Q19.284374 59.58854 20.08125 58.93229Q20.89375 58.260414 22.190624 58.260414Q23.065624 58.260414 23.753124 58.604164Q24.440624 58.947914 24.815624 59.541664Q25.20625 60.135414 25.20625 60.854164L24.065624 60.854164Q24.065624 60.072914 23.565624 59.635414Q23.08125 59.197914 22.190624 59.197914Q21.3625 59.197914 20.89375 59.572914Q20.425 59.93229 20.425 60.572914Q20.425 61.104164 20.8625 61.46354Q21.315624 61.822914 22.378124 62.11979Q23.440624 62.416664 24.034374 62.77604Q24.64375 63.135414 24.925 63.61979Q25.221874 64.104164 25.221874 64.74479Q25.221874 65.791664 24.409374 66.416664Q23.596874 67.041664 22.253124 67.041664Q21.3625 67.041664 20.596874 66.697914Q19.846874 66.354164 19.425 65.77604Q19.01875 65.18229 19.01875 64.447914L20.14375 64.447914Q20.14375 65.21354 20.721874 65.666664Q21.3 66.11979 22.253124 66.11979Q23.14375 66.11979 23.6125 65.760414Q24.08125 65.385414 24.08125 64.760414Q24.08125 64.135414 23.64375 63.791664Q23.20625 63.447914 22.05 63.11979ZM28.378124 64.229164L28.55 65.354164L28.784374 64.33854L30.471874 58.385414L31.425 58.385414L33.065624 64.33854L33.3 65.36979L33.4875 64.21354L34.815624 58.385414L35.940624 58.385414L33.878124 66.916664L32.846874 66.916664L31.08125 60.697914L30.95625 60.041664L30.815624 60.697914L29.003124 66.916664L27.971874 66.916664L25.909374 58.385414L27.034374 58.385414L28.378124 64.229164ZM43.815624 64.21354Q43.659374 65.55729 42.815624 66.30729Q41.971874 67.041664 40.58125 67.041664Q39.065624 67.041664 38.159374 65.96354Q37.253124 64.86979 37.253124 63.041664L37.253124 62.229164Q37.253124 61.041664 37.675 60.135414Q38.096874 59.229164 38.878124 58.74479Q39.659374 58.260414 40.675 58.260414Q42.034374 58.260414 42.846874 59.02604Q43.675 59.791664 43.815624 61.11979L42.690624 61.11979Q42.534374 60.104164 42.05 59.65104Q41.565624 59.197914 40.675 59.197914Q39.596874 59.197914 38.9875 59.99479Q38.378124 60.791664 38.378124 62.260414L38.378124 63.08854Q38.378124 64.479164 38.95625 65.30729Q39.534374 66.11979 40.58125 66.11979Q41.51875 66.11979 42.01875 65.697914Q42.51875 65.260414 42.690624 64.21354L43.815624 64.21354ZM47.628124 63.729164L44.76875 63.729164L44.76875 62.854164L47.628124 62.854164L47.628124 63.729164ZM51.815624 66.916664L50.7375 66.916664L50.7375 59.697914L48.55 60.49479L48.55 59.510414L51.659374 58.33854L51.815624 58.33854L51.815624 66.916664ZM58.815624 66.916664L57.7375 66.916664L57.7375 59.697914L55.55 60.49479L55.55 59.510414L58.659374 58.33854L58.815624 58.33854L58.815624 66.916664ZM63.83125 62.11979L64.64375 62.11979Q65.425 62.104164 65.8625 61.71354Q66.3 61.322914 66.3 60.65104Q66.3 59.15104 64.8 59.15104Q64.09688 59.15104 63.675 59.55729Q63.26875 59.96354 63.26875 60.61979L62.175 60.61979Q62.175 59.604164 62.909374 58.93229Q63.659374 58.260414 64.8 58.260414Q66.00313 58.260414 66.69063 58.90104Q67.37813 59.541664 67.37813 60.68229Q67.37813 61.24479 67.01875 61.760414Q66.65938 62.27604 66.03438 62.541664Q66.7375 62.760414 67.1125 63.27604Q67.50313 63.791664 67.50313 64.541664Q67.50313 65.68229 66.75313 66.36979Q66.00313 67.041664 64.8 67.041664Q63.6125 67.041664 62.846874 66.385414Q62.096874 65.729164 62.096874 64.666664L63.190624 64.666664Q63.190624 65.33854 63.628124 65.74479Q64.06563 66.15104 64.81563 66.15104Q65.59688 66.15104 66.00313 65.74479Q66.425 65.322914 66.425 64.55729Q66.425 63.822914 65.97188 63.43229Q65.51875 63.02604 64.64375 63.010414L63.83125 63.010414L63.83125 62.11979Z" fill-rule="nonzero"/><path fill="#9e9e9e" d="M24.76875 76.99479L21.2375 84.916664L20.096874 84.916664L23.6125 77.27604L19.003124 77.27604L19.003124 76.385414L24.76875 76.385414L24.76875 76.99479ZM26.39375 84.354164Q26.39375 84.072914 26.55 83.885414Q26.721874 83.697914 27.05 83.697914Q27.39375 83.697914 27.565624 83.885414Q27.7375 84.072914 27.7375 84.354164Q27.7375 84.61979 27.565624 84.80729Q27.39375 84.979164 27.05 84.979164Q26.721874 84.979164 26.55 84.80729Q26.39375 84.61979 26.39375 84.354164ZM33.83125 82.05729L35.01875 82.05729L35.01875 82.93229L33.83125 82.93229L33.83125 84.916664L32.753124 84.916664L32.753124 82.93229L28.8625 82.93229L28.8625 82.291664L32.675 76.385414L33.83125 76.385414L33.83125 82.05729ZM30.096874 82.05729L32.753124 82.05729L32.753124 77.86979L32.6125 78.104164L30.096874 82.05729ZM36.159374 78.02604Q36.159374 77.260414 36.64375 76.760414Q37.14375 76.260414 37.909374 76.260414Q38.690624 76.260414 39.175 76.760414Q39.659374 77.260414 39.659374 78.05729L39.659374 78.479164Q39.659374 79.24479 39.159374 79.74479Q38.675 80.229164 37.925 80.229164Q37.159374 80.229164 36.659374 79.74479Q36.159374 79.24479 36.159374 78.43229L36.159374 78.02604ZM36.971874 78.479164Q36.971874 78.93229 37.221874 79.229164Q37.4875 79.52604 37.925 79.52604Q38.346874 79.52604 38.596874 79.24479Q38.846874 78.947914 38.846874 78.447914L38.846874 78.02604Q38.846874 77.572914 38.596874 77.27604Q38.346874 76.96354 37.909374 76.96354Q37.471874 76.96354 37.221874 77.27604Q36.971874 77.572914 36.971874 78.041664L36.971874 78.479164ZM40.315624 82.822914Q40.315624 82.05729 40.8 81.572914Q41.3 81.072914 42.065624 81.072914Q42.83125 81.072914 43.315624 81.572914Q43.815624 82.05729 43.815624 82.86979L43.815624 83.27604Q43.815624 84.041664 43.33125 84.541664Q42.846874 85.041664 42.08125 85.041664Q41.315624 85.041664 40.815624 84.55729Q40.315624 84.05729 40.315624 83.24479L40.315624 82.822914ZM41.128124 83.27604Q41.128124 83.74479 41.378124 84.041664Q41.64375 84.33854 42.08125 84.33854Q42.503124 84.33854 42.753124 84.05729Q43.003124 83.760414 43.003124 83.260414L43.003124 82.822914Q43.003124 82.354164 42.7375 82.072914Q42.4875 81.77604 42.065624 81.77604Q41.64375 81.77604 41.378124 82.072914Q41.128124 82.354164 41.128124 82.854164L41.128124 83.27604ZM38.175 84.27604L37.55 83.885414L41.721874 77.21354L42.33125 77.604164L38.175 84.27604Z" fill-rule="nonzero"/><path stroke="#757575" stroke-width="1.0" stroke-linecap="butt" d="M18.55 71.416664L145.23334 71.416664L267.51483 66.139114" fill-rule="nonzero"/><path fill="#9e9e9e" d="M269.51483 66.139114C269.51483 65.034546 268.61942 64.139114 267.51483 64.139114C266.41028 64.139114 265.51483 65.034546 265.51483 66.139114C265.51483 67.24368 266.41028 68.139114 267.51483 68.139114C268.61942 68.139114 269.51483 67.24368 269.51483 66.139114" fill-rule="nonzero"/><path fill="#757575" d="M22.05 96.11979Q20.6125 95.697914 19.940624 95.08854Q19.284374 94.479164 19.284374 93.58854Q19.284374 92.58854 20.08125 91.93229Q20.89375 91.260414 22.190624 91.260414Q23.065624 91.260414 23.753124 91.604164Q24.440624 91.947914 24.815624 92.541664Q25.20625 93.135414 25.20625 93.854164L24.065624 93.854164Q24.065624 93.072914 23.565624 92.635414Q23.08125 92.197914 22.190624 92.197914Q21.3625 92.197914 20.89375 92.572914Q20.425 92.93229 20.425 93.572914Q20.425 94.104164 20.8625 94.46354Q21.315624 94.822914 22.378124 95.11979Q23.440624 95.416664 24.034374 95.77604Q24.64375 96.135414 24.925 96.61979Q25.221874 97.104164 25.221874 97.74479Q25.221874 98.791664 24.409374 99.416664Q23.596874 100.041664 22.253124 100.041664Q21.3625 100.041664 20.596874 99.697914Q19.846874 99.354164 19.425 98.77604Q19.01875 98.18229 19.01875 97.447914L20.14375 97.447914Q20.14375 98.21354 20.721874 98.666664Q21.3 99.11979 22.253124 99.11979Q23.14375 99.11979 23.6125 98.760414Q24.08125 98.385414 24.08125 97.760414Q24.08125 97.135414 23.64375 96.791664Q23.20625 96.447914 22.05 96.11979ZM28.378124 97.229164L28.55 98.354164L28.784374 97.33854L30.471874 91.385414L31.425 91.385414L33.065624 97.33854L33.3 98.36979L33.4875 97.21354L34.815624 91.385414L35.940624 91.385414L33.878124 99.916664L32.846874 99.916664L31.08125 93.697914L30.95625 93.041664L30.815624 93.697914L29.003124 99.916664L27.971874 99.916664L25.909374 91.385414L27.034374 91.385414L28.378124 97.229164ZM43.815624 97.21354Q43.659374 98.55729 42.815624 99.30729Q41.971874 100.041664 40.58125 100.041664Q39.065624 100.041664 38.159374 98.96354Q37.253124 97.86979 37.253124 96.041664L37.253124 95.229164Q37.253124 94.041664 37.675 93.135414Q38.096874 92.229164 38.878124 91.74479Q39.659374 91.260414 40.675 91.260414Q42.034374 91.260414 42.846874 92.02604Q43.675 92.791664 43.815624 94.11979L42.690624 94.11979Q42.534374 93.104164 42.05 92.65104Q41.565624 92.197914 40.675 92.197914Q39.596874 92.197914 38.9875 92.99479Q38.378124 93.791664 38.378124 95.260414L38.378124 96.08854Q38.378124 97.479164 38.95625 98.30729Q39.534374 99.11979 40.58125 99.11979Q41.51875 99.11979 42.01875 98.697914Q42.51875 98.260414 42.690624 97.21354L43.815624 97.21354ZM47.628124 96.729164L44.76875 96.729164L44.76875 95.854164L47.628124 95.854164L47.628124 96.729164ZM51.815624 99.916664L50.7375 99.916664L50.7375 92.697914L48.55 93.49479L48.55 92.510414L51.659374 91.33854L51.815624 91.33854L51.815624 99.916664ZM60.6125 96.27604Q60.6125 98.18229 59.95625 99.11979Q59.315624 100.041664 57.925 100.041664Q56.565624 100.041664 55.909374 99.135414Q55.253124 98.229164 55.221874 96.416664L55.221874 94.979164Q55.221874 93.08854 55.8625 92.18229Q56.51875 91.260414 57.909374 91.260414Q59.284374 91.260414 59.940624 92.15104Q60.596874 93.02604 60.6125 94.86979L60.6125 96.27604ZM59.51875 94.791664Q59.51875 93.416664 59.128124 92.791664Q58.753124 92.15104 57.909374 92.15104Q57.08125 92.15104 56.690624 92.791664Q56.315624 93.416664 56.315624 94.71354L56.315624 96.447914Q56.315624 97.822914 56.70625 98.49479Q57.1125 99.15104 57.925 99.15104Q58.721874 99.15104 59.1125 98.52604Q59.503124 97.90104 59.51875 96.572914L59.51875 94.791664ZM66.83125 97.05729L68.01875 97.05729L68.01875 97.93229L66.83125 97.93229L66.83125 99.916664L65.75313 99.916664L65.75313 97.93229L61.8625 97.93229L61.8625 97.291664L65.675 91.385414L66.83125 91.385414L66.83125 97.05729ZM63.096874 97.05729L65.75313 97.05729L65.75313 92.86979L65.6125 93.104164L63.096874 97.05729Z" fill-rule="nonzero"/><path fill="#9e9e9e" d="M20.83125 113.11979L21.64375 113.11979Q22.425 113.104164 22.8625 112.71354Q23.3 112.322914 23.3 111.65104Q23.3 110.15104 21.8 110.15104Q21.096874 110.15104 20.675 110.55729Q20.26875 110.96354 20.26875 111.61979L19.175 111.61979Q19.175 110.604164 19.909374 109.93229Q20.659374 109.260414 21.8 109.260414Q23.003124 109.260414 23.690624 109.90104Q24.378124 110.541664 24.378124 111.68229Q24.378124 112.24479 24.01875 112.760414Q23.659374 113.27604 23.034374 113.541664Q23.7375 113.760414 24.1125 114.27604Q24.503124 114.791664 24.503124 115.541664Q24.503124 116.68229 23.753124 117.36979Q23.003124 118.041664 21.8 118.041664Q20.6125 118.041664 19.846874 117.385414Q19.096874 116.729164 19.096874 115.666664L20.190624 115.666664Q20.190624 116.33854 20.628124 116.74479Q21.065624 117.15104 21.815624 117.15104Q22.596874 117.15104 23.003124 116.74479Q23.425 116.322914 23.425 115.55729Q23.425 114.822914 22.971874 114.43229Q22.51875 114.02604 21.64375 114.010414L20.83125 114.010414L20.83125 113.11979ZM26.39375 117.354164Q26.39375 117.072914 26.55 116.885414Q26.721874 116.697914 27.05 116.697914Q27.39375 116.697914 27.565624 116.885414Q27.7375 117.072914 27.7375 117.354164Q27.7375 117.61979 27.565624 117.80729Q27.39375 117.979164 27.05 117.979164Q26.721874 117.979164 26.55 117.80729Q26.39375 117.61979 26.39375 117.354164ZM33.83125 115.05729L35.01875 115.05729L35.01875 115.93229L33.83125 115.93229L33.83125 117.916664L32.753124 117.916664L32.753124 115.93229L28.8625 115.93229L28.8625 115.291664L32.675 109.385414L33.83125 109.385414L33.83125 115.05729ZM30.096874 115.05729L32.753124 115.05729L32.753124 110.86979L32.6125 111.104164L30.096874 115.05729ZM36.159374 111.02604Q36.159374 110.260414 36.64375 109.760414Q37.14375 109.260414 37.909374 109.260414Q38.690624 109.260414 39.175 109.760414Q39.659374 110.260414 39.659374 111.05729L39.659374 111.479164Q39.659374 112.24479 39.159374 112.74479Q38.675 113.229164 37.925 113.229164Q37.159374 113.229164 36.659374 112.74479Q36.159374 112.24479 36.159374 111.43229L36.159374 111.02604ZM36.971874 111.479164Q36.971874 111.93229 37.221874 112.229164Q37.4875 112.52604 37.925 112.52604Q38.346874 112.52604 38.596874 112.24479Q38.846874 111.947914 38.846874 111.447914L38.846874 111.02604Q38.846874 110.572914 38.596874 110.27604Q38.346874 109.96354 37.909374 109.96354Q37.471874 109.96354 37.221874 110.27604Q36.971874 110.572914 36.971874 111.041664L36.971874 111.479164ZM40.315624 115.822914Q40.315624 115.05729 40.8 114.572914Q41.3 114.072914 42.065624 114.072914Q42.83125 114.072914 43.315624 114.572914Q43.815624 115.05729 43.815624 115.86979L43.815624 116.27604Q43.815624 117.041664 43.33125 117.541664Q42.846874 118.041664 42.08125 118.041664Q41.315624 118.041664 40.815624 117.55729Q40.315624 117.05729 40.315624 116.24479L40.315624 115.822914ZM41.128124 116.27604Q41.128124 116.74479 41.378124 117.041664Q41.64375 117.33854 42.08125 117.33854Q42.503124 117.33854 42.753124 117.05729Q43.003124 116.760414 43.003124 116.260414L43.003124 115.822914Q43.003124 115.354164 42.7375 115.072914Q42.4875 114.77604 42.065624 114.77604Q41.64375 114.77604 41.378124 115.072914Q41.128124 115.354164 41.128124 115.854164L41.128124 116.27604ZM38.175 117.27604L37.55 116.885414L41.721874 110.21354L42.33125 110.604164L38.175 117.27604Z" fill-rule="nonzero"/><path stroke="#757575" stroke-width="1.0" stroke-linecap="butt" d="M18.55 104.416664L145.23334 104.416664L223.82016 84.644135" fill-rule="nonzero"/><path fill="#9e9e9e" d="M225.82016 84.644135C225.82016 83.539566 224.92473 82.644135 223.82016 82.644135C222.71559 82.644135 221.82016 83.539566 221.82016 84.644135C221.82016 85.7487 222.71559 86.644135 223.82016 86.644135C224.92473 86.644135 225.82016 85.7487 225.82016 84.644135" fill-rule="nonzero"/><path fill="#757575" d="M22.05 136.18416Q20.6125 135.76228 19.940624 135.15291Q19.284374 134.54353 19.284374 133.65291Q19.284374 132.65291 20.08125 131.99666Q20.89375 131.32478 22.190624 131.32478Q23.065624 131.32478 23.753124 131.66853Q24.440624 132.01228 24.815624 132.60603Q25.20625 133.19978 25.20625 133.91853L24.065624 133.91853Q24.065624 133.13728 23.565624 132.69978Q23.08125 132.26228 22.190624 132.26228Q21.3625 132.26228 20.89375 132.63728Q20.425 132.99666 20.425 133.63728Q20.425 134.16853 20.8625 134.52791Q21.315624 134.88728 22.378124 135.18416Q23.440624 135.48103 24.034374 135.84041Q24.64375 136.19978 24.925 136.68416Q25.221874 137.16853 25.221874 137.80916Q25.221874 138.85603 24.409374 139.48103Q23.596874 140.10603 22.253124 140.10603Q21.3625 140.10603 20.596874 139.76228Q19.846874 139.41853 19.425 138.84041Q19.01875 138.24666 19.01875 137.51228L20.14375 137.51228Q20.14375 138.27791 20.721874 138.73103Q21.3 139.18416 22.253124 139.18416Q23.14375 139.18416 23.6125 138.82478Q24.08125 138.44978 24.08125 137.82478Q24.08125 137.19978 23.64375 136.85603Q23.20625 136.51228 22.05 136.18416ZM28.378124 137.29353L28.55 138.41853L28.784374 137.40291L30.471874 131.44978L31.425 131.44978L33.065624 137.40291L33.3 138.43416L33.4875 137.27791L34.815624 131.44978L35.940624 131.44978L33.878124 139.98103L32.846874 139.98103L31.08125 133.76228L30.95625 133.10603L30.815624 133.76228L29.003124 139.98103L27.971874 139.98103L25.909374 131.44978L27.034374 131.44978L28.378124 137.29353ZM43.815624 137.27791Q43.659374 138.62166 42.815624 139.37166Q41.971874 140.10603 40.58125 140.10603Q39.065624 140.10603 38.159374 139.02791Q37.253124 137.93416 37.253124 136.10603L37.253124 135.29353Q37.253124 134.10603 37.675 133.19978Q38.096874 132.29353 38.878124 131.80916Q39.659374 131.32478 40.675 131.32478Q42.034374 131.32478 42.846874 132.09041Q43.675 132.85603 43.815624 134.18416L42.690624 134.18416Q42.534374 133.16853 42.05 132.71541Q41.565624 132.26228 40.675 132.26228Q39.596874 132.26228 38.9875 133.05916Q38.378124 133.85603 38.378124 135.32478L38.378124 136.15291Q38.378124 137.54353 38.95625 138.37166Q39.534374 139.18416 40.58125 139.18416Q41.51875 139.18416 42.01875 138.76228Q42.51875 138.32478 42.690624 137.27791L43.815624 137.27791ZM47.628124 136.79353L44.76875 136.79353L44.76875 135.91853L47.628124 135.91853L47.628124 136.79353ZM51.815624 139.98103L50.7375 139.98103L50.7375 132.76228L48.55 133.55916L48.55 132.57478L51.659374 131.40291L51.815624 131.40291L51.815624 139.98103ZM60.846874 139.98103L55.253124 139.98103L55.253124 139.19978L58.20625 135.91853Q58.8625 135.16853 59.1125 134.71541Q59.3625 134.24666 59.3625 133.74666Q59.3625 133.07478 58.95625 132.65291Q58.565624 132.21541 57.878124 132.21541Q57.08125 132.21541 56.628124 132.68416Q56.175 133.13728 56.175 133.96541L55.096874 133.96541Q55.096874 132.77791 55.846874 132.05916Q56.6125 131.32478 57.878124 131.32478Q59.08125 131.32478 59.76875 131.94978Q60.45625 132.57478 60.45625 133.62166Q60.45625 134.87166 58.846874 136.62166L56.565624 139.09041L60.846874 139.09041L60.846874 139.98103ZM63.83125 135.18416L64.64375 135.18416Q65.425 135.16853 65.8625 134.77791Q66.3 134.38728 66.3 133.71541Q66.3 132.21541 64.8 132.21541Q64.09688 132.21541 63.675 132.62166Q63.26875 133.02791 63.26875 133.68416L62.175 133.68416Q62.175 132.66853 62.909374 131.99666Q63.659374 131.32478 64.8 131.32478Q66.00313 131.32478 66.69063 131.96541Q67.37813 132.60603 67.37813 133.74666Q67.37813 134.30916 67.01875 134.82478Q66.65938 135.34041 66.03438 135.60603Q66.7375 135.82478 67.1125 136.34041Q67.50313 136.85603 67.50313 137.60603Q67.50313 138.74666 66.75313 139.43416Q66.00313 140.10603 64.8 140.10603Q63.6125 140.10603 62.846874 139.44978Q62.096874 138.79353 62.096874 137.73103L63.190624 137.73103Q63.190624 138.40291 63.628124 138.80916Q64.06563 139.21541 64.81563 139.21541Q65.59688 139.21541 66.00313 138.80916Q66.425 138.38728 66.425 137.62166Q66.425 136.88728 65.97188 136.49666Q65.51875 136.09041 64.64375 136.07478L63.83125 136.07478L63.83125 135.18416Z" fill-rule="nonzero"/><path fill="#9e9e9e" d="M22.815624 157.98103L21.7375 157.98103L21.7375 150.76228L19.55 151.55916L19.55 150.57478L22.659374 149.40291L22.815624 149.40291L22.815624 157.98103ZM30.83125 155.12166L32.01875 155.12166L32.01875 155.99666L30.83125 155.99666L30.83125 157.98103L29.753124 157.98103L29.753124 155.99666L25.8625 155.99666L25.8625 155.35603L29.675 149.44978L30.83125 149.44978L30.83125 155.12166ZM27.096874 155.12166L29.753124 155.12166L29.753124 150.93416L29.6125 151.16853L27.096874 155.12166ZM33.39375 157.41853Q33.39375 157.13728 33.55 156.94978Q33.721874 156.76228 34.05 156.76228Q34.39375 156.76228 34.565624 156.94978Q34.7375 157.13728 34.7375 157.41853Q34.7375 157.68416 34.565624 157.87166Q34.39375 158.04353 34.05 158.04353Q33.721874 158.04353 33.55 157.87166Q33.39375 157.68416 33.39375 157.41853ZM41.440624 151.66853Q41.440624 152.30916 41.096874 152.80916Q40.753124 153.30916 40.190624 153.59041Q40.846874 153.87166 41.2375 154.43416Q41.628124 154.98103 41.628124 155.68416Q41.628124 156.77791 40.878124 157.44978Q40.14375 158.10603 38.925 158.10603Q37.690624 158.10603 36.940624 157.44978Q36.20625 156.77791 36.20625 155.68416Q36.20625 154.98103 36.58125 154.43416Q36.95625 153.87166 37.628124 153.59041Q37.065624 153.30916 36.7375 152.80916Q36.409374 152.30916 36.409374 151.66853Q36.409374 150.59041 37.096874 149.96541Q37.784374 149.32478 38.925 149.32478Q40.05 149.32478 40.7375 149.96541Q41.440624 150.59041 41.440624 151.66853ZM40.55 155.65291Q40.55 154.93416 40.096874 154.49666Q39.64375 154.04353 38.909374 154.04353Q38.175 154.04353 37.721874 154.49666Q37.284374 154.93416 37.284374 155.66853Q37.284374 156.38728 37.721874 156.80916Q38.159374 157.21541 38.925 157.21541Q39.675 157.21541 40.1125 156.79353Q40.55 156.37166 40.55 155.65291ZM38.925 150.21541Q38.284374 150.21541 37.878124 150.62166Q37.4875 151.01228 37.4875 151.69978Q37.4875 152.34041 37.878124 152.74666Q38.26875 153.15291 38.909374 153.15291Q39.565624 153.15291 39.95625 152.74666Q40.346874 152.34041 40.346874 151.69978Q40.346874 151.04353 39.940624 150.63728Q39.534374 150.21541 38.925 150.21541ZM43.159374 151.09041Q43.159374 150.32478 43.64375 149.82478Q44.14375 149.32478 44.909374 149.32478Q45.690624 149.32478 46.175 149.82478Q46.659374 150.32478 46.659374 151.12166L46.659374 151.54353Q46.659374 152.30916 46.159374 152.80916Q45.675 153.29353 44.925 153.29353Q44.159374 153.29353 43.659374 152.80916Q43.159374 152.30916 43.159374 151.49666L43.159374 151.09041ZM43.971874 151.54353Q43.971874 151.99666 44.221874 152.29353Q44.4875 152.59041 44.925 152.59041Q45.346874 152.59041 45.596874 152.30916Q45.846874 152.01228 45.846874 151.51228L45.846874 151.09041Q45.846874 150.63728 45.596874 150.34041Q45.346874 150.02791 44.909374 150.02791Q44.471874 150.02791 44.221874 150.34041Q43.971874 150.63728 43.971874 151.10603L43.971874 151.54353ZM47.315624 155.88728Q47.315624 155.12166 47.8 154.63728Q48.3 154.13728 49.065624 154.13728Q49.83125 154.13728 50.315624 154.63728Q50.815624 155.12166 50.815624 155.93416L50.815624 156.34041Q50.815624 157.10603 50.33125 157.60603Q49.846874 158.10603 49.08125 158.10603Q48.315624 158.10603 47.815624 157.62166Q47.315624 157.12166 47.315624 156.30916L47.315624 155.88728ZM48.128124 156.34041Q48.128124 156.80916 48.378124 157.10603Q48.64375 157.40291 49.08125 157.40291Q49.503124 157.40291 49.753124 157.12166Q50.003124 156.82478 50.003124 156.32478L50.003124 155.88728Q50.003124 155.41853 49.7375 155.13728Q49.4875 154.84041 49.065624 154.84041Q48.64375 154.84041 48.378124 155.13728Q48.128124 155.41853 48.128124 155.91853L48.128124 156.34041ZM45.175 157.34041L44.55 156.94978L48.721874 150.27791L49.33125 150.66853L45.175 157.34041Z" fill-rule="nonzero"/><path stroke="#757575" stroke-width="1.0" stroke-linecap="butt" d="M18.55 144.48103L145.23334 144.48103L171.66924 144.48103" fill-rule="nonzero"/><path fill="#9e9e9e" d="M173.66924 144.48103C173.66924 143.37645 172.7738 142.48103 171.66924 142.48103C170.56467 142.48103 169.66924 143.37645 169.66924 144.48103C169.66924 145.5856 170.56467 146.48103 171.66924 146.48103C172.7738 146.48103 173.66924 145.5856 173.66924 144.48103" fill-rule="nonzero"/><path fill="#757575" d="M22.05 297.9195Q20.6125 297.49762 19.940624 296.88824Q19.284374 296.27887 19.284374 295.38824Q19.284374 294.38824 20.08125 293.732Q20.89375 293.06012 22.190624 293.06012Q23.065624 293.06012 23.753124 293.40387Q24.440624 293.74762 24.815624 294.34137Q25.20625 294.93512 25.20625 295.65387L24.065624 295.65387Q24.065624 294.87262 23.565624 294.43512Q23.08125 293.99762 22.190624 293.99762Q21.3625 293.99762 20.89375 294.37262Q20.425 294.732 20.425 295.37262Q20.425 295.90387 20.8625 296.26324Q21.315624 296.62262 22.378124 296.9195Q23.440624 297.21637 24.034374 297.57574Q24.64375 297.93512 24.925 298.4195Q25.221874 298.90387 25.221874 299.5445Q25.221874 300.59137 24.409374 301.21637Q23.596874 301.84137 22.253124 301.84137Q21.3625 301.84137 20.596874 301.49762Q19.846874 301.15387 19.425 300.57574Q19.01875 299.982 19.01875 299.24762L20.14375 299.24762Q20.14375 300.01324 20.721874 300.46637Q21.3 300.9195 22.253124 300.9195Q23.14375 300.9195 23.6125 300.56012Q24.08125 300.18512 24.08125 299.56012Q24.08125 298.93512 23.64375 298.59137Q23.20625 298.24762 22.05 297.9195ZM28.378124 299.02887L28.55 300.15387L28.784374 299.13824L30.471874 293.18512L31.425 293.18512L33.065624 299.13824L33.3 300.1695L33.4875 299.01324L34.815624 293.18512L35.940624 293.18512L33.878124 301.71637L32.846874 301.71637L31.08125 295.49762L30.95625 294.84137L30.815624 295.49762L29.003124 301.71637L27.971874 301.71637L25.909374 293.18512L27.034374 293.18512L28.378124 299.02887ZM43.815624 299.01324Q43.659374 300.357 42.815624 301.107Q41.971874 301.84137 40.58125 301.84137Q39.065624 301.84137 38.159374 300.76324Q37.253124 299.6695 37.253124 297.84137L37.253124 297.02887Q37.253124 295.84137 37.675 294.93512Q38.096874 294.02887 38.878124 293.5445Q39.659374 293.06012 40.675 293.06012Q42.034374 293.06012 42.846874 293.82574Q43.675 294.59137 43.815624 295.9195L42.690624 295.9195Q42.534374 294.90387 42.05 294.45074Q41.565624 293.99762 40.675 293.99762Q39.596874 293.99762 38.9875 294.7945Q38.378124 295.59137 38.378124 297.06012L38.378124 297.88824Q38.378124 299.27887 38.95625 300.107Q39.534374 300.9195 40.58125 300.9195Q41.51875 300.9195 42.01875 300.49762Q42.51875 300.06012 42.690624 299.01324L43.815624 299.01324ZM47.628124 298.52887L44.76875 298.52887L44.76875 297.65387L47.628124 297.65387L47.628124 298.52887ZM51.815624 301.71637L50.7375 301.71637L50.7375 294.49762L48.55 295.2945L48.55 294.31012L51.659374 293.13824L51.815624 293.13824L51.815624 301.71637ZM58.815624 301.71637L57.7375 301.71637L57.7375 294.49762L55.55 295.2945L55.55 294.31012L58.659374 293.13824L58.815624 293.13824L58.815624 301.71637ZM67.6125 298.07574Q67.6125 299.982 66.95625 300.9195Q66.31563 301.84137 64.925 301.84137Q63.565624 301.84137 62.909374 300.93512Q62.253124 300.02887 62.221874 298.21637L62.221874 296.77887Q62.221874 294.88824 62.8625 293.982Q63.51875 293.06012 64.90938 293.06012Q66.28438 293.06012 66.94063 293.95074Q67.59688 294.82574 67.6125 296.6695L67.6125 298.07574ZM66.51875 296.59137Q66.51875 295.21637 66.12813 294.59137Q65.75313 293.95074 64.90938 293.95074Q64.08125 293.95074 63.690624 294.59137Q63.315624 295.21637 63.315624 296.51324L63.315624 298.24762Q63.315624 299.62262 63.70625 300.2945Q64.1125 300.95074 64.925 300.95074Q65.72188 300.95074 66.1125 300.32574Q66.50313 299.70074 66.51875 298.37262L66.51875 296.59137Z" fill-rule="nonzero"/><path fill="#9e9e9e" d="M24.846874 319.71637L19.253124 319.71637L19.253124 318.93512L22.20625 315.65387Q22.8625 314.90387 23.1125 314.45074Q23.3625 313.982 23.3625 313.482Q23.3625 312.81012 22.95625 312.38824Q22.565624 311.95074 21.878124 311.95074Q21.08125 311.95074 20.628124 312.4195Q20.175 312.87262 20.175 313.70074L19.096874 313.70074Q19.096874 312.51324 19.846874 311.7945Q20.6125 311.06012 21.878124 311.06012Q23.08125 311.06012 23.76875 311.68512Q24.45625 312.31012 24.45625 313.357Q24.45625 314.607 22.846874 316.357L20.565624 318.82574L24.846874 318.82574L24.846874 319.71637ZM30.83125 316.857L32.01875 316.857L32.01875 317.732L30.83125 317.732L30.83125 319.71637L29.753124 319.71637L29.753124 317.732L25.8625 317.732L25.8625 317.09137L29.675 311.18512L30.83125 311.18512L30.83125 316.857ZM27.096874 316.857L29.753124 316.857L29.753124 312.6695L29.6125 312.90387L27.096874 316.857ZM33.39375 319.15387Q33.39375 318.87262 33.55 318.68512Q33.721874 318.49762 34.05 318.49762Q34.39375 318.49762 34.565624 318.68512Q34.7375 318.87262 34.7375 319.15387Q34.7375 319.4195 34.565624 319.607Q34.39375 319.77887 34.05 319.77887Q33.721874 319.77887 33.55 319.607Q33.39375 319.4195 33.39375 319.15387ZM41.440624 313.40387Q41.440624 314.0445 41.096874 314.5445Q40.753124 315.0445 40.190624 315.32574Q40.846874 315.607 41.2375 316.1695Q41.628124 316.71637 41.628124 317.4195Q41.628124 318.51324 40.878124 319.18512Q40.14375 319.84137 38.925 319.84137Q37.690624 319.84137 36.940624 319.18512Q36.20625 318.51324 36.20625 317.4195Q36.20625 316.71637 36.58125 316.1695Q36.95625 315.607 37.628124 315.32574Q37.065624 315.0445 36.7375 314.5445Q36.409374 314.0445 36.409374 313.40387Q36.409374 312.32574 37.096874 311.70074Q37.784374 311.06012 38.925 311.06012Q40.05 311.06012 40.7375 311.70074Q41.440624 312.32574 41.440624 313.40387ZM40.55 317.38824Q40.55 316.6695 40.096874 316.232Q39.64375 315.77887 38.909374 315.77887Q38.175 315.77887 37.721874 316.232Q37.284374 316.6695 37.284374 317.40387Q37.284374 318.12262 37.721874 318.5445Q38.159374 318.95074 38.925 318.95074Q39.675 318.95074 40.1125 318.52887Q40.55 318.107 40.55 317.38824ZM38.925 311.95074Q38.284374 311.95074 37.878124 312.357Q37.4875 312.74762 37.4875 313.43512Q37.4875 314.07574 37.878124 314.482Q38.26875 314.88824 38.909374 314.88824Q39.565624 314.88824 39.95625 314.482Q40.346874 314.07574 40.346874 313.43512Q40.346874 312.77887 39.940624 312.37262Q39.534374 311.95074 38.925 311.95074ZM43.159374 312.82574Q43.159374 312.06012 43.64375 311.56012Q44.14375 311.06012 44.909374 311.06012Q45.690624 311.06012 46.175 311.56012Q46.659374 312.06012 46.659374 312.857L46.659374 313.27887Q46.659374 314.0445 46.159374 314.5445Q45.675 315.02887 44.925 315.02887Q44.159374 315.02887 43.659374 314.5445Q43.159374 314.0445 43.159374 313.232L43.159374 312.82574ZM43.971874 313.27887Q43.971874 313.732 44.221874 314.02887Q44.4875 314.32574 44.925 314.32574Q45.346874 314.32574 45.596874 314.0445Q45.846874 313.74762 45.846874 313.24762L45.846874 312.82574Q45.846874 312.37262 45.596874 312.07574Q45.346874 311.76324 44.909374 311.76324Q44.471874 311.76324 44.221874 312.07574Q43.971874 312.37262 43.971874 312.84137L43.971874 313.27887ZM47.315624 317.62262Q47.315624 316.857 47.8 316.37262Q48.3 315.87262 49.065624 315.87262Q49.83125 315.87262 50.315624 316.37262Q50.815624 316.857 50.815624 317.6695L50.815624 318.07574Q50.815624 318.84137 50.33125 319.34137Q49.846874 319.84137 49.08125 319.84137Q48.315624 319.84137 47.815624 319.357Q47.315624 318.857 47.315624 318.0445L47.315624 317.62262ZM48.128124 318.07574Q48.128124 318.5445 48.378124 318.84137Q48.64375 319.13824 49.08125 319.13824Q49.503124 319.13824 49.753124 318.857Q50.003124 318.56012 50.003124 318.06012L50.003124 317.62262Q50.003124 317.15387 49.7375 316.87262Q49.4875 316.57574 49.065624 316.57574Q48.64375 316.57574 48.378124 316.87262Q48.128124 317.15387 48.128124 317.65387L48.128124 318.07574ZM45.175 319.07574L44.55 318.68512L48.721874 312.01324L49.33125 312.40387L45.175 319.07574Z" fill-rule="nonzero"/><path stroke="#757575" stroke-width="1.0" stroke-linecap="butt" d="M18.55 306.21637L145.23334 306.21637L202.73401 306.21637" fill-rule="nonzero"/><path fill="#9e9e9e" d="M204.73401 306.21637C204.73401 305.11182 203.83858 304.21637 202.73401 304.21637C201.62944 304.21637 200.73401 305.11182 200.73401 306.21637C200.73401 307.32095 201.62944 308.21637 202.73401 308.21637C203.83858 308.21637 204.73401 307.32095 204.73401 306.21637" fill-rule="nonzero"/><path fill="#757575" d="M534.95 63.11979Q533.5125 62.697914 532.84064 62.08854Q532.1844 61.479164 532.1844 60.58854Q532.1844 59.58854 532.98126 58.93229Q533.79376 58.260414 535.09064 58.260414Q535.96564 58.260414 536.65314 58.604164Q537.34064 58.947914 537.71564 59.541664Q538.10626 60.135414 538.10626 60.854164L536.96564 60.854164Q536.96564 60.072914 536.46564 59.635414Q535.98126 59.197914 535.09064 59.197914Q534.2625 59.197914 533.79376 59.572914Q533.325 59.93229 533.325 60.572914Q533.325 61.104164 533.7625 61.46354Q534.21564 61.822914 535.27814 62.11979Q536.34064 62.416664 536.9344 62.77604Q537.54376 63.135414 537.825 63.61979Q538.1219 64.104164 538.1219 64.74479Q538.1219 65.791664 537.3094 66.416664Q536.4969 67.041664 535.15314 67.041664Q534.2625 67.041664 533.4969 66.697914Q532.7469 66.354164 532.325 65.77604Q531.91876 65.18229 531.91876 64.447914L533.04376 64.447914Q533.04376 65.21354 533.6219 65.666664Q534.2 66.11979 535.15314 66.11979Q536.04376 66.11979 536.5125 65.760414Q536.98126 65.385414 536.98126 64.760414Q536.98126 64.135414 536.54376 63.791664Q536.10626 63.447914 534.95 63.11979ZM541.27814 64.229164L541.45 65.354164L541.6844 64.33854L543.3719 58.385414L544.325 58.385414L545.96564 64.33854L546.2 65.36979L546.3875 64.21354L547.71564 58.385414L548.84064 58.385414L546.77814 66.916664L545.7469 66.916664L543.98126 60.697914L543.85626 60.041664L543.71564 60.697914L541.90314 66.916664L540.8719 66.916664L538.8094 58.385414L539.9344 58.385414L541.27814 64.229164ZM556.71564 64.21354Q556.5594 65.55729 555.71564 66.30729Q554.8719 67.041664 553.48126 67.041664Q551.96564 67.041664 551.0594 65.96354Q550.15314 64.86979 550.15314 63.041664L550.15314 62.229164Q550.15314 61.041664 550.575 60.135414Q550.9969 59.229164 551.77814 58.74479Q552.5594 58.260414 553.575 58.260414Q554.9344 58.260414 555.7469 59.02604Q556.575 59.791664 556.71564 61.11979L555.59064 61.11979Q555.4344 60.104164 554.95 59.65104Q554.46564 59.197914 553.575 59.197914Q552.4969 59.197914 551.8875 59.99479Q551.27814 60.791664 551.27814 62.260414L551.27814 63.08854Q551.27814 64.479164 551.85626 65.30729Q552.4344 66.11979 553.48126 66.11979Q554.41876 66.11979 554.91876 65.697914Q555.41876 65.260414 555.59064 64.21354L556.71564 64.21354ZM560.52814 63.729164L557.66876 63.729164L557.66876 62.854164L560.52814 62.854164L560.52814 63.729164ZM564.71564 66.916664L563.6375 66.916664L563.6375 59.697914L561.45 60.49479L561.45 59.510414L564.5594 58.33854L564.71564 58.33854L564.71564 66.916664ZM573.5125 63.27604Q573.5125 65.18229 572.85626 66.11979Q572.21564 67.041664 570.825 67.041664Q569.46564 67.041664 568.8094 66.135414Q568.15314 65.229164 568.1219 63.416664L568.1219 61.979164Q568.1219 60.08854 568.7625 59.18229Q569.41876 58.260414 570.8094 58.260414Q572.1844 58.260414 572.84064 59.15104Q573.4969 60.02604 573.5125 61.86979L573.5125 63.27604ZM572.41876 61.791664Q572.41876 60.416664 572.02814 59.791664Q571.65314 59.15104 570.8094 59.15104Q569.98126 59.15104 569.59064 59.791664Q569.21564 60.416664 569.21564 61.71354L569.21564 63.447914Q569.21564 64.822914 569.60626 65.49479Q570.0125 66.15104 570.825 66.15104Q571.6219 66.15104 572.0125 65.52604Q572.40314 64.90104 572.41876 63.572914L572.41876 61.791664ZM580.66876 58.99479L577.1375 66.916664L575.9969 66.916664L579.5125 59.27604L574.90314 59.27604L574.90314 58.385414L580.66876 58.385414L580.66876 58.99479Z" fill-rule="nonzero"/><path fill="#9e9e9e" d="M560.73126 82.05729L561.91876 82.05729L561.91876 82.93229L560.73126 82.93229L560.73126 84.916664L559.65314 84.916664L559.65314 82.93229L555.7625 82.93229L555.7625 82.291664L559.575 76.385414L560.73126 76.385414L560.73126 82.05729ZM556.9969 82.05729L559.65314 82.05729L559.65314 77.86979L559.5125 78.104164L556.9969 82.05729ZM563.29376 84.354164Q563.29376 84.072914 563.45 83.885414Q563.6219 83.697914 563.95 83.697914Q564.29376 83.697914 564.46564 83.885414Q564.6375 84.072914 564.6375 84.354164Q564.6375 84.61979 564.46564 84.80729Q564.29376 84.979164 563.95 84.979164Q563.6219 84.979164 563.45 84.80729Q563.29376 84.61979 563.29376 84.354164ZM571.5125 81.27604Q571.5125 83.18229 570.85626 84.11979Q570.21564 85.041664 568.825 85.041664Q567.46564 85.041664 566.8094 84.135414Q566.15314 83.229164 566.1219 81.416664L566.1219 79.979164Q566.1219 78.08854 566.7625 77.18229Q567.41876 76.260414 568.8094 76.260414Q570.1844 76.260414 570.84064 77.15104Q571.4969 78.02604 571.5125 79.86979L571.5125 81.27604ZM570.41876 79.791664Q570.41876 78.416664 570.02814 77.791664Q569.65314 77.15104 568.8094 77.15104Q567.98126 77.15104 567.59064 77.791664Q567.21564 78.416664 567.21564 79.71354L567.21564 81.447914Q567.21564 82.822914 567.60626 83.49479Q568.0125 84.15104 568.825 84.15104Q569.6219 84.15104 570.0125 83.52604Q570.40314 82.90104 570.41876 81.572914L570.41876 79.791664ZM573.0594 78.02604Q573.0594 77.260414 573.54376 76.760414Q574.04376 76.260414 574.8094 76.260414Q575.59064 76.260414 576.075 76.760414Q576.5594 77.260414 576.5594 78.05729L576.5594 78.479164Q576.5594 79.24479 576.0594 79.74479Q575.575 80.229164 574.825 80.229164Q574.0594 80.229164 573.5594 79.74479Q573.0594 79.24479 573.0594 78.43229L573.0594 78.02604ZM573.8719 78.479164Q573.8719 78.93229 574.1219 79.229164Q574.3875 79.52604 574.825 79.52604Q575.2469 79.52604 575.4969 79.24479Q575.7469 78.947914 575.7469 78.447914L575.7469 78.02604Q575.7469 77.572914 575.4969 77.27604Q575.2469 76.96354 574.8094 76.96354Q574.3719 76.96354 574.1219 77.27604Q573.8719 77.572914 573.8719 78.041664L573.8719 78.479164ZM577.21564 82.822914Q577.21564 82.05729 577.7 81.572914Q578.2 81.072914 578.96564 81.072914Q579.73126 81.072914 580.21564 81.572914Q580.71564 82.05729 580.71564 82.86979L580.71564 83.27604Q580.71564 84.041664 580.23126 84.541664Q579.7469 85.041664 578.98126 85.041664Q578.21564 85.041664 577.71564 84.55729Q577.21564 84.05729 577.21564 83.24479L577.21564 82.822914ZM578.02814 83.27604Q578.02814 83.74479 578.27814 84.041664Q578.54376 84.33854 578.98126 84.33854Q579.40314 84.33854 579.65314 84.05729Q579.90314 83.760414 579.90314 83.260414L579.90314 82.822914Q579.90314 82.354164 579.6375 82.072914Q579.3875 81.77604 578.96564 81.77604Q578.54376 81.77604 578.27814 82.072914Q578.02814 82.354164 578.02814 82.854164L578.02814 83.27604ZM575.075 84.27604L574.45 83.885414L578.6219 77.21354L579.23126 77.604164L575.075 84.27604Z" fill-rule="nonzero"/><path stroke="#757575" stroke-width="1.0" stroke-linecap="butt" d="M581.45 71.416664L454.76666 71.416664L317.8314 63.484406" fill-rule="nonzero"/><path fill="#9e9e9e" d="M319.8314 63.484406C319.8314 62.379837 318.93594 61.484406 317.8314 61.484406C316.7268 61.484406 315.8314 62.379837 315.8314 63.484406C315.8314 64.588974 316.7268 65.484406 317.8314 65.484406C318.93594 65.484406 319.8314 64.588974 319.8314 63.484406" fill-rule="nonzero"/><path fill="#757575" d="M534.95 211.73886Q533.5125 211.31699 532.84064 210.70761Q532.1844 210.09824 532.1844 209.20761Q532.1844 208.20761 532.98126 207.55136Q533.79376 206.87949 535.09064 206.87949Q535.96564 206.87949 536.65314 207.22324Q537.34064 207.56699 537.71564 208.16074Q538.10626 208.75449 538.10626 209.47324L536.96564 209.47324Q536.96564 208.69199 536.46564 208.25449Q535.98126 207.81699 535.09064 207.81699Q534.2625 207.81699 533.79376 208.19199Q533.325 208.55136 533.325 209.19199Q533.325 209.72324 533.7625 210.08261Q534.21564 210.44199 535.27814 210.73886Q536.34064 211.03574 536.9344 211.39511Q537.54376 211.75449 537.825 212.23886Q538.1219 212.72324 538.1219 213.36386Q538.1219 214.41074 537.3094 215.03574Q536.4969 215.66074 535.15314 215.66074Q534.2625 215.66074 533.4969 215.31699Q532.7469 214.97324 532.325 214.39511Q531.91876 213.80136 531.91876 213.06699L533.04376 213.06699Q533.04376 213.83261 533.6219 214.28574Q534.2 214.73886 535.15314 214.73886Q536.04376 214.73886 536.5125 214.37949Q536.98126 214.00449 536.98126 213.37949Q536.98126 212.75449 536.54376 212.41074Q536.10626 212.06699 534.95 211.73886ZM541.27814 212.84824L541.45 213.97324L541.6844 212.95761L543.3719 207.00449L544.325 207.00449L545.96564 212.95761L546.2 213.98886L546.3875 212.83261L547.71564 207.00449L548.84064 207.00449L546.77814 215.53574L545.7469 215.53574L543.98126 209.31699L543.85626 208.66074L543.71564 209.31699L541.90314 215.53574L540.8719 215.53574L538.8094 207.00449L539.9344 207.00449L541.27814 212.84824ZM556.71564 212.83261Q556.5594 214.17636 555.71564 214.92636Q554.8719 215.66074 553.48126 215.66074Q551.96564 215.66074 551.0594 214.58261Q550.15314 213.48886 550.15314 211.66074L550.15314 210.84824Q550.15314 209.66074 550.575 208.75449Q550.9969 207.84824 551.77814 207.36386Q552.5594 206.87949 553.575 206.87949Q554.9344 206.87949 555.7469 207.64511Q556.575 208.41074 556.71564 209.73886L555.59064 209.73886Q555.4344 208.72324 554.95 208.27011Q554.46564 207.81699 553.575 207.81699Q552.4969 207.81699 551.8875 208.61386Q551.27814 209.41074 551.27814 210.87949L551.27814 211.70761Q551.27814 213.09824 551.85626 213.92636Q552.4344 214.73886 553.48126 214.73886Q554.41876 214.73886 554.91876 214.31699Q555.41876 213.87949 555.59064 212.83261L556.71564 212.83261ZM560.52814 212.34824L557.66876 212.34824L557.66876 211.47324L560.52814 211.47324L560.52814 212.34824ZM564.71564 215.53574L563.6375 215.53574L563.6375 208.31699L561.45 209.11386L561.45 208.12949L564.5594 206.95761L564.71564 206.95761L564.71564 215.53574ZM573.5125 211.89511Q573.5125 213.80136 572.85626 214.73886Q572.21564 215.66074 570.825 215.66074Q569.46564 215.66074 568.8094 214.75449Q568.15314 213.84824 568.1219 212.03574L568.1219 210.59824Q568.1219 208.70761 568.7625 207.80136Q569.41876 206.87949 570.8094 206.87949Q572.1844 206.87949 572.84064 207.77011Q573.4969 208.64511 573.5125 210.48886L573.5125 211.89511ZM572.41876 210.41074Q572.41876 209.03574 572.02814 208.41074Q571.65314 207.77011 570.8094 207.77011Q569.98126 207.77011 569.59064 208.41074Q569.21564 209.03574 569.21564 210.33261L569.21564 212.06699Q569.21564 213.44199 569.60626 214.11386Q570.0125 214.77011 570.825 214.77011Q571.6219 214.77011 572.0125 214.14511Q572.40314 213.52011 572.41876 212.19199L572.41876 210.41074ZM578.71564 215.53574L577.6375 215.53574L577.6375 208.31699L575.45 209.11386L575.45 208.12949L578.5594 206.95761L578.71564 206.95761L578.71564 215.53574Z" fill-rule="nonzero"/><path fill="#9e9e9e" d="M553.73126 230.67636L554.91876 230.67636L554.91876 231.55136L553.73126 231.55136L553.73126 233.53574L552.65314 233.53574L552.65314 231.55136L548.7625 231.55136L548.7625 230.91074L552.575 225.00449L553.73126 225.00449L553.73126 230.67636ZM549.9969 230.67636L552.65314 230.67636L552.65314 226.48886L552.5125 226.72324L549.9969 230.67636ZM556.65314 229.25449L557.09064 225.00449L561.46564 225.00449L561.46564 226.00449L558.0125 226.00449L557.7469 228.33261Q558.3875 227.95761 559.1844 227.95761Q560.34064 227.95761 561.02814 228.73886Q561.71564 229.50449 561.71564 230.81699Q561.71564 232.12949 560.9969 232.89511Q560.29376 233.66074 559.0125 233.66074Q557.8875 233.66074 557.16876 233.03574Q556.45 232.39511 556.35626 231.28574L557.3719 231.28574Q557.48126 232.02011 557.90314 232.39511Q558.325 232.77011 559.0125 232.77011Q559.7625 232.77011 560.2 232.25449Q560.6375 231.73886 560.6375 230.83261Q560.6375 229.97324 560.16876 229.45761Q559.7 228.94199 558.91876 228.94199Q558.21564 228.94199 557.8094 229.23886L557.52814 229.47324L556.65314 229.25449ZM563.29376 232.97324Q563.29376 232.69199 563.45 232.50449Q563.6219 232.31699 563.95 232.31699Q564.29376 232.31699 564.46564 232.50449Q564.6375 232.69199 564.6375 232.97324Q564.6375 233.23886 564.46564 233.42636Q564.29376 233.59824 563.95 233.59824Q563.6219 233.59824 563.45 233.42636Q563.29376 233.23886 563.29376 232.97324ZM570.41876 225.00449L570.41876 225.91074L570.21564 225.91074Q568.95 225.94199 568.2 226.67636Q567.45 227.39511 567.325 228.70761Q568.0125 227.94199 569.16876 227.94199Q570.27814 227.94199 570.95 228.72324Q571.6219 229.50449 571.6219 230.75449Q571.6219 232.06699 570.90314 232.86386Q570.1844 233.66074 568.96564 233.66074Q567.7469 233.66074 566.98126 232.72324Q566.23126 231.77011 566.23126 230.28574L566.23126 229.87949Q566.23126 227.52011 567.23126 226.27011Q568.23126 225.02011 570.21564 225.00449L570.41876 225.00449ZM568.9969 228.84824Q568.4344 228.84824 567.96564 229.17636Q567.4969 229.50449 567.3094 230.02011L567.3094 230.41074Q567.3094 231.47324 567.77814 232.11386Q568.2625 232.75449 568.96564 232.75449Q569.7 232.75449 570.1219 232.22324Q570.54376 231.67636 570.54376 230.80136Q570.54376 229.92636 570.1219 229.39511Q569.7 228.84824 568.9969 228.84824ZM573.0594 226.64511Q573.0594 225.87949 573.54376 225.37949Q574.04376 224.87949 574.8094 224.87949Q575.59064 224.87949 576.075 225.37949Q576.5594 225.87949 576.5594 226.67636L576.5594 227.09824Q576.5594 227.86386 576.0594 228.36386Q575.575 228.84824 574.825 228.84824Q574.0594 228.84824 573.5594 228.36386Q573.0594 227.86386 573.0594 227.05136L573.0594 226.64511ZM573.8719 227.09824Q573.8719 227.55136 574.1219 227.84824Q574.3875 228.14511 574.825 228.14511Q575.2469 228.14511 575.4969 227.86386Q575.7469 227.56699 575.7469 227.06699L575.7469 226.64511Q575.7469 226.19199 575.4969 225.89511Q575.2469 225.58261 574.8094 225.58261Q574.3719 225.58261 574.1219 225.89511Q573.8719 226.19199 573.8719 226.66074L573.8719 227.09824ZM577.21564 231.44199Q577.21564 230.67636 577.7 230.19199Q578.2 229.69199 578.96564 229.69199Q579.73126 229.69199 580.21564 230.19199Q580.71564 230.67636 580.71564 231.48886L580.71564 231.89511Q580.71564 232.66074 580.23126 233.16074Q579.7469 233.66074 578.98126 233.66074Q578.21564 233.66074 577.71564 233.17636Q577.21564 232.67636 577.21564 231.86386L577.21564 231.44199ZM578.02814 231.89511Q578.02814 232.36386 578.27814 232.66074Q578.54376 232.95761 578.98126 232.95761Q579.40314 232.95761 579.65314 232.67636Q579.90314 232.37949 579.90314 231.87949L579.90314 231.44199Q579.90314 230.97324 579.6375 230.69199Q579.3875 230.39511 578.96564 230.39511Q578.54376 230.39511 578.27814 230.69199Q578.02814 230.97324 578.02814 231.47324L578.02814 231.89511ZM575.075 232.89511L574.45 232.50449L578.6219 225.83261L579.23126 226.22324L575.075 232.89511Z" fill-rule="nonzero"/><path stroke="#757575" stroke-width="1.0" stroke-linecap="butt" d="M581.45 220.03574L454.76666 220.03574L440.37912 220.03574" fill-rule="nonzero"/><path fill="#9e9e9e" d="M442.37912 220.03574C442.37912 218.93117 441.48367 218.03574 440.37912 218.03574C439.27454 218.03574 438.37912 218.93117 438.37912 220.03574C438.37912 221.1403 439.27454 222.03574 440.37912 222.03574C441.48367 222.03574 442.37912 221.1403 442.37912 220.03574" fill-rule="nonzero"/><path fill="#757575" d="M20.20625 37.55L20.20625 23.33125L24.221874 23.33125Q26.065624 23.33125 27.4875 24.159374Q28.925 24.971874 29.690624 26.4875Q30.471874 28.003124 30.4875 29.95625L30.4875 30.8625Q30.4875 32.878124 29.70625 34.39375Q28.925 35.909374 27.4875 36.721874Q26.05 37.534374 24.14375 37.55L20.20625 37.55ZM22.08125 24.878124L22.08125 36.01875L24.05 36.01875Q26.221874 36.01875 27.425 34.675Q28.628124 33.315624 28.628124 30.83125L28.628124 30.003124Q28.628124 27.58125 27.4875 26.2375Q26.346874 24.89375 24.26875 24.878124L22.08125 24.878124ZM34.878124 37.55L33.08125 37.55L33.08125 26.9875L34.878124 26.9875L34.878124 37.55ZM32.925 24.175Q32.925 23.7375 33.190624 23.440624Q33.471874 23.128124 33.9875 23.128124Q34.51875 23.128124 34.784374 23.440624Q35.065624 23.7375 35.065624 24.175Q35.065624 24.6125 34.784374 24.909374Q34.51875 25.20625 33.9875 25.20625Q33.471874 25.20625 33.190624 24.909374Q32.925 24.6125 32.925 24.175ZM44.065624 34.753124Q44.065624 34.01875 43.51875 33.6125Q42.971874 33.20625 41.596874 32.909374Q40.221874 32.6125 39.409374 32.20625Q38.6125 31.8 38.221874 31.2375Q37.846874 30.659374 37.846874 29.878124Q37.846874 28.58125 38.940624 27.690624Q40.034374 26.784374 41.753124 26.784374Q43.55 26.784374 44.659374 27.721874Q45.784374 28.64375 45.784374 30.08125L43.95625 30.08125Q43.95625 29.346874 43.33125 28.815624Q42.70625 28.26875 41.753124 28.26875Q40.753124 28.26875 40.190624 28.70625Q39.64375 29.128124 39.64375 29.83125Q39.64375 30.471874 40.159374 30.815624Q40.675 31.14375 42.034374 31.45625Q43.39375 31.753124 44.221874 32.175Q45.065624 32.58125 45.471874 33.175Q45.878124 33.76875 45.878124 34.6125Q45.878124 36.034374 44.7375 36.89375Q43.6125 37.753124 41.8 37.753124Q40.534374 37.753124 39.55 37.3Q38.58125 36.846874 38.01875 36.05Q37.471874 35.2375 37.471874 34.3L39.284374 34.3Q39.33125 35.20625 40.003124 35.7375Q40.690624 36.26875 41.8 36.26875Q42.83125 36.26875 43.440624 35.8625Q44.065624 35.440624 44.065624 34.753124ZM50.3625 24.425L50.3625 26.9875L52.346874 26.9875L52.346874 28.378124L50.3625 28.378124L50.3625 34.925Q50.3625 35.565624 50.628124 35.89375Q50.89375 36.20625 51.534374 36.20625Q51.846874 36.20625 52.39375 36.08125L52.39375 37.55Q51.675 37.753124 51.003124 37.753124Q49.8 37.753124 49.175 37.01875Q48.565624 36.284374 48.565624 34.925L48.565624 28.378124L46.64375 28.378124L46.64375 26.9875L48.565624 26.9875L48.565624 24.425L50.3625 24.425ZM60.01875 28.596874Q59.6125 28.534374 59.14375 28.534374Q57.3625 28.534374 56.721874 30.05L56.721874 37.55L54.925 37.55L54.925 26.9875L56.675 26.9875L56.70625 28.20625Q57.596874 26.784374 59.221874 26.784374Q59.753124 26.784374 60.01875 26.925L60.01875 28.596874ZM63.878124 37.55L62.08125 37.55L62.08125 26.9875L63.878124 26.9875L63.878124 37.55ZM61.925 24.175Q61.925 23.7375 62.190624 23.440624Q62.471874 23.128124 62.9875 23.128124Q63.51875 23.128124 63.784374 23.440624Q64.06563 23.7375 64.06563 24.175Q64.06563 24.6125 63.784374 24.909374Q63.51875 25.20625 62.9875 25.20625Q62.471874 25.20625 62.190624 24.909374Q61.925 24.6125 61.925 24.175ZM75.8625 32.378124Q75.8625 34.8 74.75313 36.284374Q73.64375 37.753124 71.76875 37.753124Q69.75313 37.753124 68.65938 36.33125L68.58125 37.55L66.925 37.55L66.925 22.55L68.72188 22.55L68.72188 28.14375Q69.81563 26.784374 71.7375 26.784374Q73.65938 26.784374 74.75313 28.2375Q75.8625 29.690624 75.8625 32.221874L75.8625 32.378124ZM74.05 32.175Q74.05 30.33125 73.33125 29.33125Q72.62813 28.315624 71.3 28.315624Q69.50313 28.315624 68.72188 29.9875L68.72188 34.55Q69.55 36.20625 71.31563 36.20625Q72.6125 36.20625 73.33125 35.20625Q74.05 34.20625 74.05 32.175ZM84.44063 36.503124Q83.39375 37.753124 81.34688 37.753124Q79.65938 37.753124 78.76875 36.76875Q77.89375 35.784374 77.87813 33.8625L77.87813 26.9875L79.69063 26.9875L79.69063 33.815624Q79.69063 36.20625 81.64375 36.20625Q83.70625 36.20625 84.39375 34.675L84.39375 26.9875L86.20625 26.9875L86.20625 37.55L84.4875 37.55L84.44063 36.503124ZM91.3625 24.425L91.3625 26.9875L93.34688 26.9875L93.34688 28.378124L91.3625 28.378124L91.3625 34.925Q91.3625 35.565624 91.62813 35.89375Q91.89375 36.20625 92.53438 36.20625Q92.84688 36.20625 93.39375 36.08125L93.39375 37.55Q92.675 37.753124 92.00313 37.753124Q90.8 37.753124 90.175 37.01875Q89.56563 36.284374 89.56563 34.925L89.56563 28.378124L87.64375 28.378124L87.64375 26.9875L89.56563 26.9875L89.56563 24.425L91.3625 24.425ZM97.87813 37.55L96.08125 37.55L96.08125 26.9875L97.87813 26.9875L97.87813 37.55ZM95.925 24.175Q95.925 23.7375 96.19063 23.440624Q96.47188 23.128124 96.9875 23.128124Q97.51875 23.128124 97.78438 23.440624Q98.06563 23.7375 98.06563 24.175Q98.06563 24.6125 97.78438 24.909374Q97.51875 25.20625 96.9875 25.20625Q96.47188 25.20625 96.19063 24.909374Q95.925 24.6125 95.925 24.175ZM100.44063 32.175Q100.44063 30.6125 101.05 29.378124Q101.65938 28.128124 102.7375 27.45625Q103.83125 26.784374 105.2375 26.784374Q107.39375 26.784374 108.72188 28.284374Q110.06563 29.76875 110.06563 32.253124L110.06563 32.378124Q110.06563 33.925 109.47188 35.159374Q108.87813 36.378124 107.76875 37.065624Q106.675 37.753124 105.25313 37.753124Q103.1125 37.753124 101.76875 36.253124Q100.44063 34.753124 100.44063 32.3L100.44063 32.175ZM102.25313 32.378124Q102.25313 34.14375 103.06563 35.20625Q103.89375 36.26875 105.25313 36.26875Q106.62813 36.26875 107.44063 35.190624Q108.25313 34.1125 108.25313 32.175Q108.25313 30.425 107.425 29.346874Q106.59688 28.26875 105.2375 28.26875Q103.89375 28.26875 103.06563 29.33125Q102.25313 30.39375 102.25313 32.378124ZM113.62813 26.9875L113.69063 28.315624Q114.89375 26.784374 116.84688 26.784374Q120.20625 26.784374 120.22188 30.565624L120.22188 37.55L118.425 37.55L118.425 30.55Q118.40938 29.409374 117.89375 28.8625Q117.39375 28.315624 116.3 28.315624Q115.425 28.315624 114.75313 28.784374Q114.09688 29.253124 113.72188 30.01875L113.72188 37.55L111.925 37.55L111.925 26.9875L113.62813 26.9875ZM127.44063 32.175Q127.44063 30.6125 128.05 29.378124Q128.65938 28.128124 129.7375 27.45625Q130.83125 26.784374 132.2375 26.784374Q134.39375 26.784374 135.72188 28.284374Q137.06563 29.76875 137.06563 32.253124L137.06563 32.378124Q137.06563 33.925 136.47188 35.159374Q135.87813 36.378124 134.76875 37.065624Q133.675 37.753124 132.25313 37.753124Q130.1125 37.753124 128.76875 36.253124Q127.44063 34.753124 127.44063 32.3L127.44063 32.175ZM129.25313 32.378124Q129.25313 34.14375 130.06563 35.20625Q130.89375 36.26875 132.25313 36.26875Q133.62813 36.26875 134.44063 35.190624Q135.25313 34.1125 135.25313 32.175Q135.25313 30.425 134.425 29.346874Q133.59688 28.26875 132.2375 28.26875Q130.89375 28.26875 130.06563 29.33125Q129.25313 30.39375 129.25313 32.378124ZM139.8 37.55L139.8 28.378124L138.14375 28.378124L138.14375 26.9875L139.8 26.9875L139.8 25.89375Q139.8 24.20625 140.70625 23.284374Q141.62813 22.346874 143.28438 22.346874Q143.90938 22.346874 144.51875 22.503124L144.425 23.971874Q143.97188 23.89375 143.45625 23.89375Q142.56563 23.89375 142.08125 24.409374Q141.6125 24.909374 141.6125 25.8625L141.6125 26.9875L143.8625 26.9875L143.8625 28.378124L141.6125 28.378124L141.6125 37.55L139.8 37.55ZM155.39375 31.20625Q152.97188 30.51875 151.87813 29.51875Q150.78438 28.503124 150.78438 27.01875Q150.78438 25.33125 152.12813 24.2375Q153.47188 23.128124 155.6125 23.128124Q157.08125 23.128124 158.22188 23.70625Q159.37813 24.26875 160.00313 25.26875Q160.62813 26.253124 160.62813 27.440624L158.75313 27.440624Q158.75313 26.159374 157.925 25.425Q157.1125 24.675 155.6125 24.675Q154.22188 24.675 153.44063 25.284374Q152.675 25.89375 152.675 26.9875Q152.675 27.846874 153.40938 28.45625Q154.14375 29.05 155.90938 29.55Q157.69063 30.05 158.69063 30.659374Q159.69063 31.253124 160.175 32.05Q160.65938 32.846874 160.65938 33.940624Q160.65938 35.659374 159.31563 36.70625Q157.97188 37.753124 155.70625 37.753124Q154.25313 37.753124 152.97188 37.190624Q151.70625 36.628124 151.01875 35.659374Q150.33125 34.675 150.33125 33.425L152.22188 33.425Q152.22188 34.721874 153.175 35.471874Q154.12813 36.20625 155.70625 36.20625Q157.19063 36.20625 157.9875 35.6125Q158.78438 35.003124 158.78438 33.95625Q158.78438 32.909374 158.05 32.346874Q157.31563 31.76875 155.39375 31.20625ZM166.26875 33.065624L166.53438 34.940624L166.94063 33.253124L169.75313 23.33125L171.33125 23.33125L174.08125 33.253124L174.47188 34.971874L174.76875 33.05L176.9875 23.33125L178.8625 23.33125L175.425 37.55L173.70625 37.55L170.78438 27.190624L170.55 26.096874L170.33125 27.190624L167.3 37.55L165.58125 37.55L162.14375 23.33125L164.01875 23.33125L166.26875 33.065624ZM191.65938 33.034374Q191.39375 35.3 189.9875 36.534374Q188.59688 37.753124 186.26875 37.753124Q183.75313 37.753124 182.22188 35.940624Q180.70625 34.128124 180.70625 31.096874L180.70625 29.7375Q180.70625 27.753124 181.40938 26.253124Q182.12813 24.753124 183.425 23.940624Q184.72188 23.128124 186.44063 23.128124Q188.70625 23.128124 190.06563 24.39375Q191.44063 25.659374 191.65938 27.89375L189.76875 27.89375Q189.53438 26.20625 188.70625 25.440624Q187.89375 24.675 186.44063 24.675Q184.64375 24.675 183.6125 26.003124Q182.59688 27.33125 182.59688 29.784374L182.59688 31.159374Q182.59688 33.471874 183.56563 34.846874Q184.53438 36.20625 186.26875 36.20625Q187.83125 36.20625 188.65938 35.503124Q189.50313 34.8 189.76875 33.034374L191.65938 33.034374ZM200.87813 37.55L199.08125 37.55L199.08125 26.9875L200.87813 26.9875L200.87813 37.55ZM198.925 24.175Q198.925 23.7375 199.19063 23.440624Q199.47188 23.128124 199.9875 23.128124Q200.51875 23.128124 200.78438 23.440624Q201.06563 23.7375 201.06563 24.175Q201.06563 24.6125 200.78438 24.909374Q200.51875 25.20625 199.9875 25.20625Q199.47188 25.20625 199.19063 24.909374Q198.925 24.6125 198.925 24.175ZM210.06563 34.753124Q210.06563 34.01875 209.51875 33.6125Q208.97188 33.20625 207.59688 32.909374Q206.22188 32.6125 205.40938 32.20625Q204.6125 31.8 204.22188 31.2375Q203.84688 30.659374 203.84688 29.878124Q203.84688 28.58125 204.94063 27.690624Q206.03438 26.784374 207.75313 26.784374Q209.55 26.784374 210.65938 27.721874Q211.78438 28.64375 211.78438 30.08125L209.95625 30.08125Q209.95625 29.346874 209.33125 28.815624Q208.70625 28.26875 207.75313 28.26875Q206.75313 28.26875 206.19063 28.70625Q205.64375 29.128124 205.64375 29.83125Q205.64375 30.471874 206.15938 30.815624Q206.675 31.14375 208.03438 31.45625Q209.39375 31.753124 210.22188 32.175Q211.06563 32.58125 211.47188 33.175Q211.87813 33.76875 211.87813 34.6125Q211.87813 36.034374 210.7375 36.89375Q209.6125 37.753124 207.8 37.753124Q206.53438 37.753124 205.55 37.3Q204.58125 36.846874 204.01875 36.05Q203.47188 35.2375 203.47188 34.3L205.28438 34.3Q205.33125 35.20625 206.00313 35.7375Q206.69063 36.26875 207.8 36.26875Q208.83125 36.26875 209.44063 35.8625Q210.06563 35.440624 210.06563 34.753124ZM220.06563 34.753124Q220.06563 34.01875 219.51875 33.6125Q218.97188 33.20625 217.59688 32.909374Q216.22188 32.6125 215.40938 32.20625Q214.6125 31.8 214.22188 31.2375Q213.84688 30.659374 213.84688 29.878124Q213.84688 28.58125 214.94063 27.690624Q216.03438 26.784374 217.75313 26.784374Q219.55 26.784374 220.65938 27.721874Q221.78438 28.64375 221.78438 30.08125L219.95625 30.08125Q219.95625 29.346874 219.33125 28.815624Q218.70625 28.26875 217.75313 28.26875Q216.75313 28.26875 216.19063 28.70625Q215.64375 29.128124 215.64375 29.83125Q215.64375 30.471874 216.15938 30.815624Q216.675 31.14375 218.03438 31.45625Q219.39375 31.753124 220.22188 32.175Q221.06563 32.58125 221.47188 33.175Q221.87813 33.76875 221.87813 34.6125Q221.87813 36.034374 220.7375 36.89375Q219.6125 37.753124 217.8 37.753124Q216.53438 37.753124 215.55 37.3Q214.58125 36.846874 214.01875 36.05Q213.47188 35.2375 213.47188 34.3L215.28438 34.3Q215.33125 35.20625 216.00313 35.7375Q216.69063 36.26875 217.8 36.26875Q218.83125 36.26875 219.44063 35.8625Q220.06563 35.440624 220.06563 34.753124ZM230.44063 36.503124Q229.39375 37.753124 227.34688 37.753124Q225.65938 37.753124 224.76875 36.76875Q223.89375 35.784374 223.87813 33.8625L223.87813 26.9875L225.69063 26.9875L225.69063 33.815624Q225.69063 36.20625 227.64375 36.20625Q229.70625 36.20625 230.39375 34.675L230.39375 26.9875L232.20625 26.9875L232.20625 37.55L230.4875 37.55L230.44063 36.503124ZM239.3 37.753124Q237.15938 37.753124 235.8 36.346874Q234.45625 34.925 234.45625 32.565624L234.45625 32.221874Q234.45625 30.659374 235.05 29.425Q235.65938 28.190624 236.7375 27.4875Q237.81563 26.784374 239.08125 26.784374Q241.14375 26.784374 242.28438 28.14375Q243.425 29.503124 243.425 32.034374L243.425 32.784374L236.26875 32.784374Q236.3 34.346874 237.175 35.315624Q238.05 36.26875 239.39375 36.26875Q240.3625 36.26875 241.01875 35.878124Q241.69063 35.4875 242.19063 34.846874L243.28438 35.70625Q241.95625 37.753124 239.3 37.753124ZM239.08125 28.26875Q237.9875 28.26875 237.2375 29.065624Q236.50313 29.8625 236.33125 31.3L241.6125 31.3L241.6125 31.159374Q241.53438 29.784374 240.8625 29.034374Q240.20625 28.26875 239.08125 28.26875ZM253.3625 24.425L253.3625 26.9875L255.34688 26.9875L255.34688 28.378124L253.3625 28.378124L253.3625 34.925Q253.3625 35.565624 253.62813 35.89375Q253.89375 36.20625 254.53438 36.20625Q254.84688 36.20625 255.39375 36.08125L255.39375 37.55Q254.675 37.753124 254.00313 37.753124Q252.8 37.753124 252.175 37.01875Q251.56563 36.284374 251.56563 34.925L251.56563 28.378124L249.64375 28.378124L249.64375 26.9875L251.56563 26.9875L251.56563 24.425L253.3625 24.425ZM261.3781 34.909374L263.83124 26.9875L265.76874 26.9875L261.51874 39.175Q260.53436 41.815624 258.39374 41.815624L258.05 41.784374L257.3781 41.659374L257.3781 40.190624L257.8625 40.2375Q258.78436 40.2375 259.28436 39.8625Q259.8 39.4875 260.1281 38.503124L260.53436 37.425L256.76874 26.9875L258.7375 26.9875L261.3781 34.909374ZM275.84686 32.378124Q275.84686 34.8 274.7375 36.284374Q273.64374 37.753124 271.7531 37.753124Q269.83124 37.753124 268.72186 36.51875L268.72186 41.6125L266.925 41.6125L266.925 26.9875L268.5656 26.9875L268.65936 28.159374Q269.7531 26.784374 271.72186 26.784374Q273.6281 26.784374 274.7375 28.221874Q275.84686 29.659374 275.84686 32.221874L275.84686 32.378124ZM274.03436 32.175Q274.03436 30.39375 273.26874 29.3625Q272.51874 28.315624 271.1906 28.315624Q269.55 28.315624 268.72186 29.76875L268.72186 34.83125Q269.53436 36.26875 271.20624 36.26875Q272.5031 36.26875 273.26874 35.2375Q274.03436 34.20625 274.03436 32.175ZM282.3 37.753124Q280.15936 37.753124 278.8 36.346874Q277.45624 34.925 277.45624 32.565624L277.45624 32.221874Q277.45624 30.659374 278.05 29.425Q278.65936 28.190624 279.7375 27.4875Q280.8156 26.784374 282.08124 26.784374Q284.14374 26.784374 285.28436 28.14375Q286.425 29.503124 286.425 32.034374L286.425 32.784374L279.26874 32.784374Q279.3 34.346874 280.175 35.315624Q281.05 36.26875 282.39374 36.26875Q283.3625 36.26875 284.01874 35.878124Q284.6906 35.4875 285.1906 34.846874L286.28436 35.70625Q284.95624 37.753124 282.3 37.753124ZM282.08124 28.26875Q280.9875 28.26875 280.2375 29.065624Q279.5031 29.8625 279.33124 31.3L284.6125 31.3L284.6125 31.159374Q284.53436 29.784374 283.8625 29.034374Q283.20624 28.26875 282.08124 28.26875ZM295.0656 34.753124Q295.0656 34.01875 294.51874 33.6125Q293.97186 33.20625 292.59686 32.909374Q291.22186 32.6125 290.40936 32.20625Q289.6125 31.8 289.22186 31.2375Q288.84686 30.659374 288.84686 29.878124Q288.84686 28.58125 289.9406 27.690624Q291.03436 26.784374 292.7531 26.784374Q294.55 26.784374 295.65936 27.721874Q296.78436 28.64375 296.78436 30.08125L294.95624 30.08125Q294.95624 29.346874 294.33124 28.815624Q293.70624 28.26875 292.7531 28.26875Q291.7531 28.26875 291.1906 28.70625Q290.64374 29.128124 290.64374 29.83125Q290.64374 30.471874 291.15936 30.815624Q291.675 31.14375 293.03436 31.45625Q294.39374 31.753124 295.22186 32.175Q296.0656 32.58125 296.47186 33.175Q296.8781 33.76875 296.8781 34.6125Q296.8781 36.034374 295.7375 36.89375Q294.6125 37.753124 292.8 37.753124Q291.53436 37.753124 290.55 37.3Q289.58124 36.846874 289.01874 36.05Q288.47186 35.2375 288.47186 34.3L290.28436 34.3Q290.33124 35.20625 291.0031 35.7375Q291.6906 36.26875 292.8 36.26875Q293.83124 36.26875 294.4406 35.8625Q295.0656 35.440624 295.0656 34.753124Z" fill-rule="nonzero"/></svg>